<svg width="138" height="42" viewBox="0 0 138 42" fill="none" xmlns="http://www.w3.org/2000/svg">
<path fill-rule="evenodd" clip-rule="evenodd" d="M121.704 0H124.704V7.4451C126.961 7.61121 129.026 8.23617 130.9 9.32C133.113 10.5733 134.847 12.32 136.1 14.56C137.042 16.2228 137.63 18.0362 137.864 20H134.182C133.97 18.6972 133.542 17.4838 132.9 16.36C132.265 15.1981 131.462 14.2093 130.493 13.3935C130.881 14.2744 131.082 15.27 131.095 16.38H127.855C127.855 15.252 127.555 14.34 126.955 13.644C126.379 12.924 125.551 12.48 124.471 12.312V20H122.311V12.312C121.255 12.48 120.427 12.888 119.827 13.536C119.251 14.184 118.963 15.024 118.963 16.056C118.963 17.304 119.347 18.36 120.115 19.224C120.387 19.5219 120.702 19.7806 121.059 20H116.585C116.01 18.9177 115.723 17.6991 115.723 16.344C115.723 15.3259 115.888 14.4024 116.219 13.5733C115.342 14.3533 114.609 15.2822 114.02 16.36C113.396 17.4838 112.98 18.6972 112.773 20H109.016C109.251 18.0362 109.838 16.2228 110.78 14.56C112.06 12.32 113.807 10.5733 116.02 9.32C117.751 8.31865 119.646 7.70898 121.704 7.49099V0ZM96.6512 20L106 8H102L92.6824 20H96.6512ZM87.36 20V8H83.8V20H87.36ZM62.36 20V11.2H75.88V8H58.8V20H62.36ZM49.5953 20C50.3107 18.8646 50.6684 17.5312 50.6684 16C50.6684 13.52 49.7084 11.5733 47.7884 10.16C45.8951 8.72 43.2818 8 39.9484 8H30.9484V20H34.5084V11.2H39.5884C41.9084 11.2 43.7351 11.7333 45.0684 12.8C46.4018 13.8667 47.0684 15.3333 47.0684 17.2C47.0684 18.2564 46.8487 19.1897 46.4092 20H49.5953ZM14.44 20V11.48H25.24V8H0V11.48H10.84V20H14.44ZM10.84 27V36H14.44V27H10.84ZM30.9484 27V36H34.5084V27H30.9484ZM42.052 27L49.1084 36H53.2284L46.1799 27H42.052ZM58.8 27V36H77.44V32.8H62.36V27H58.8ZM83.8 27V36H87.36V27H83.8ZM94.9718 27L101.96 36H106.32L99.3425 27H94.9718ZM109.683 27C109.969 27.8586 110.335 28.6852 110.78 29.48C112.06 31.6933 113.807 33.44 116.02 34.72C117.751 35.7005 119.646 36.2975 121.704 36.5109V42H124.704V36.5558C126.961 36.3932 129.026 35.7812 130.9 34.72C133.113 33.44 134.847 31.6933 136.1 29.48C136.545 28.6852 136.911 27.8586 137.197 27H133.252C133.143 27.2299 133.026 27.4565 132.9 27.68C132.475 28.4459 131.974 29.1369 131.399 29.7531C131.412 29.5589 131.419 29.3612 131.419 29.16C131.419 28.398 131.331 27.678 131.154 27H127.652C128.004 27.6635 128.179 28.4075 128.179 29.232C128.179 30.384 127.855 31.32 127.207 32.04C126.993 32.278 126.75 32.4872 126.478 32.6675C125.837 32.8344 125.173 32.9453 124.484 33H124.471V27H122.311V32.9894C121.428 32.9102 120.585 32.7379 119.781 32.4725C119.604 32.3412 119.439 32.197 119.287 32.04C118.591 31.296 118.243 30.336 118.243 29.16H115.009C114.644 28.7024 114.314 28.209 114.02 27.68C113.898 27.4565 113.784 27.2299 113.677 27H109.683Z" fill="#040000"/>
</svg>
