<svg width="27" height="42" viewBox="0 0 27 42" fill="none" xmlns="http://www.w3.org/2000/svg">
<path fill-rule="evenodd" clip-rule="evenodd" d="M14.8495 0H12.1106V7.49099C10.2319 7.70898 8.50212 8.31865 6.92134 9.32C4.90066 10.5733 3.30602 12.32 2.13744 14.56C1.27779 16.2228 0.741074 18.0362 0.52726 20H3.95736C4.14606 18.6972 4.52541 17.4838 5.09541 16.36C5.63354 15.2822 6.30276 14.3533 7.10306 13.5732C6.80121 14.4024 6.65027 15.3259 6.65027 16.344C6.65027 17.6991 6.91241 18.9177 7.4367 20H11.5217C11.1959 19.7806 10.9087 19.5219 10.66 19.224C9.95883 18.36 9.60825 17.304 9.60825 16.056C9.60825 15.024 9.87118 14.184 10.397 13.536C10.9448 12.888 11.7008 12.48 12.6648 12.312V20H14.6368V12.312C15.6228 12.48 16.3787 12.924 16.9046 13.644C17.4524 14.34 17.7263 15.252 17.7263 16.38H20.6843C20.6719 15.27 20.4887 14.2744 20.1348 13.3935C21.0196 14.2093 21.752 15.1981 22.3321 16.36C22.9184 17.4838 23.3085 18.6972 23.5026 20H26.8637C26.6499 18.0362 26.1132 16.2228 25.2535 14.56C24.1093 12.32 22.5268 10.5733 20.5061 9.32C18.7952 8.23617 16.9096 7.61121 14.8495 7.4451V0ZM2.13744 29.48C1.73145 28.6852 1.39748 27.8586 1.13554 27H4.78262C4.87958 27.2299 4.98384 27.4565 5.09541 27.68C5.36374 28.209 5.66466 28.7024 5.99816 29.16H8.95093C8.95093 30.336 9.26863 31.296 9.90405 32.04C10.0428 32.197 10.1932 32.3412 10.3553 32.4725C11.0887 32.7379 11.8586 32.9102 12.6648 32.9894V27H14.6368V33H14.6487C15.2774 32.9453 15.8842 32.8344 16.469 32.6675C16.7172 32.4872 16.9391 32.278 17.1347 32.04C17.7263 31.32 18.0221 30.384 18.0221 29.232C18.0221 28.4075 17.8618 27.6635 17.5413 27H20.7381C20.8994 27.678 20.9801 28.398 20.9801 29.16C20.9801 29.3612 20.974 29.5589 20.9618 29.7531C21.4869 29.1369 21.9436 28.4459 22.3321 27.68C22.4468 27.4565 22.5541 27.2299 22.6538 27H26.2554C25.9935 27.8586 25.6595 28.6852 25.2535 29.48C24.1093 31.6933 22.5268 33.44 20.5061 34.72C18.7952 35.7812 16.9096 36.3932 14.8495 36.5558V42H12.1106V36.5109C10.2319 36.2975 8.50212 35.7005 6.92134 34.72C4.90066 33.44 3.30602 31.6933 2.13744 29.48Z" fill="#040000"/>
</svg>
